<mxfile host="65bd71144e">
    <diagram id="yQEEpM5XhERdsmotUKzd" name="Page-1">
        <mxGraphModel dx="1086" dy="779" grid="1" gridSize="10" guides="1" tooltips="1" connect="1" arrows="1" fold="1" page="1" pageScale="1" pageWidth="1169" pageHeight="827" math="0" shadow="0">
            <root>
                <mxCell id="0"/>
                <mxCell id="1" parent="0"/>
                <mxCell id="22" style="edgeStyle=none;html=1;exitX=0;exitY=0;exitDx=50;exitDy=20;exitPerimeter=0;entryX=0.083;entryY=0.533;entryDx=0;entryDy=0;entryPerimeter=0;strokeWidth=2;" edge="1" parent="1" source="2" target="15">
                    <mxGeometry relative="1" as="geometry"/>
                </mxCell>
                <mxCell id="2" value="" style="externalPins=0;recursiveResize=0;shadow=0;dashed=0;align=center;html=1;strokeWidth=1;shape=mxgraph.rtl.abstract.entity;container=1;collapsible=0;kind=sequential;drawPins=0;left=3;right=2;bottom=0;top=0;" vertex="1" parent="1">
                    <mxGeometry x="425" y="334" width="50" height="50" as="geometry"/>
                </mxCell>
                <mxCell id="3" value="" style="externalPins=0;recursiveResize=0;shadow=0;dashed=0;align=center;html=1;strokeWidth=1;shape=mxgraph.rtl.abstract.entity;container=1;collapsible=0;kind=sequential;drawPins=0;left=3;right=2;bottom=0;top=0;" vertex="1" parent="1">
                    <mxGeometry x="677" y="297" width="170" height="250" as="geometry"/>
                </mxCell>
                <mxCell id="15" value="finalBombLocation" style="text;html=1;align=center;verticalAlign=middle;resizable=0;points=[];autosize=1;strokeColor=none;fillColor=none;" vertex="1" parent="3">
                    <mxGeometry x="-10" y="40" width="120" height="30" as="geometry"/>
                </mxCell>
                <mxCell id="16" value="playerMoveSync" style="text;html=1;align=center;verticalAlign=middle;resizable=0;points=[];autosize=1;strokeColor=none;fillColor=none;" vertex="1" parent="3">
                    <mxGeometry x="-10" y="10" width="110" height="30" as="geometry"/>
                </mxCell>
                <mxCell id="17" value="gamePlayMode" style="text;html=1;align=center;verticalAlign=middle;resizable=0;points=[];autosize=1;strokeColor=none;fillColor=none;" vertex="1" parent="3">
                    <mxGeometry x="-10" y="100" width="110" height="30" as="geometry"/>
                </mxCell>
                <mxCell id="18" value="clearTileMask" style="text;html=1;align=center;verticalAlign=middle;resizable=0;points=[];autosize=1;strokeColor=none;fillColor=none;" vertex="1" parent="3">
                    <mxGeometry x="80" y="74" width="100" height="30" as="geometry"/>
                </mxCell>
                <mxCell id="19" value="hitDet" style="text;html=1;align=center;verticalAlign=middle;resizable=0;points=[];autosize=1;strokeColor=none;fillColor=none;" vertex="1" parent="3">
                    <mxGeometry x="130" y="150" width="50" height="30" as="geometry"/>
                </mxCell>
                <mxCell id="20" value="ClearTiles" style="text;html=1;align=center;verticalAlign=middle;resizable=0;points=[];autosize=1;strokeColor=none;fillColor=none;" vertex="1" parent="3">
                    <mxGeometry x="87" y="226" width="80" height="30" as="geometry"/>
                </mxCell>
                <mxCell id="42" style="edgeStyle=none;rounded=0;html=1;exitX=0;exitY=0;exitDx=50;exitDy=20;exitPerimeter=0;strokeWidth=1;" edge="1" parent="1" source="4">
                    <mxGeometry relative="1" as="geometry">
                        <mxPoint x="360" y="523" as="targetPoint"/>
                    </mxGeometry>
                </mxCell>
                <mxCell id="43" value="reset" style="edgeLabel;html=1;align=center;verticalAlign=middle;resizable=0;points=[];" vertex="1" connectable="0" parent="42">
                    <mxGeometry x="-0.5661" y="-1" relative="1" as="geometry">
                        <mxPoint x="9" y="-8" as="offset"/>
                    </mxGeometry>
                </mxCell>
                <mxCell id="4" value="" style="externalPins=0;recursiveResize=0;shadow=0;dashed=0;align=center;html=1;strokeWidth=1;shape=mxgraph.rtl.abstract.entity;container=1;collapsible=0;kind=sequential;drawPins=0;left=3;right=2;bottom=0;top=0;" vertex="1" parent="1">
                    <mxGeometry x="247" y="503" width="50" height="50" as="geometry"/>
                </mxCell>
                <mxCell id="25" style="edgeStyle=none;rounded=0;html=1;exitX=0;exitY=0;exitDx=80;exitDy=30;exitPerimeter=0;entryX=-0.004;entryY=0.105;entryDx=0;entryDy=0;entryPerimeter=0;strokeWidth=2;" edge="1" parent="1" source="5" target="3">
                    <mxGeometry relative="1" as="geometry">
                        <Array as="points">
                            <mxPoint x="577" y="233"/>
                            <mxPoint x="577" y="323"/>
                        </Array>
                    </mxGeometry>
                </mxCell>
                <mxCell id="5" value="" style="externalPins=0;recursiveResize=0;shadow=0;dashed=0;align=center;html=1;strokeWidth=1;shape=mxgraph.rtl.abstract.entity;container=1;collapsible=0;kind=sequential;drawPins=0;left=3;right=2;bottom=0;top=0;" vertex="1" parent="1">
                    <mxGeometry x="417" y="203" width="80" height="80" as="geometry"/>
                </mxCell>
                <mxCell id="26" value="" style="triangle;whiteSpace=wrap;html=1;" vertex="1" parent="5">
                    <mxGeometry y="61" width="10" height="19" as="geometry"/>
                </mxCell>
                <mxCell id="44" style="edgeStyle=none;rounded=0;html=1;exitX=0;exitY=0;exitDx=50;exitDy=20;exitPerimeter=0;strokeWidth=1;" edge="1" parent="1" source="7">
                    <mxGeometry relative="1" as="geometry">
                        <mxPoint x="350" y="613" as="targetPoint"/>
                    </mxGeometry>
                </mxCell>
                <mxCell id="45" value="clock" style="edgeLabel;html=1;align=center;verticalAlign=middle;resizable=0;points=[];" vertex="1" connectable="0" parent="44">
                    <mxGeometry x="0.2956" y="-1" relative="1" as="geometry">
                        <mxPoint x="-12" y="-4" as="offset"/>
                    </mxGeometry>
                </mxCell>
                <mxCell id="7" value="" style="externalPins=0;recursiveResize=0;shadow=0;dashed=0;align=center;html=1;strokeWidth=1;shape=mxgraph.rtl.abstract.entity;container=1;collapsible=0;kind=sequential;drawPins=0;left=3;right=2;bottom=0;top=0;" vertex="1" parent="1">
                    <mxGeometry x="247" y="593" width="50" height="50" as="geometry"/>
                </mxCell>
                <mxCell id="8" value="RESET" style="text;html=1;align=center;verticalAlign=middle;resizable=0;points=[];autosize=1;strokeColor=none;fillColor=none;" vertex="1" parent="1">
                    <mxGeometry x="242" y="478" width="60" height="30" as="geometry"/>
                </mxCell>
                <mxCell id="9" value="CLOCK" style="text;html=1;align=center;verticalAlign=middle;resizable=0;points=[];autosize=1;strokeColor=none;fillColor=none;" vertex="1" parent="1">
                    <mxGeometry x="242" y="569" width="60" height="30" as="geometry"/>
                </mxCell>
                <mxCell id="10" value="BOMBLOCATION" style="text;html=1;align=center;verticalAlign=middle;resizable=0;points=[];autosize=1;strokeColor=none;fillColor=none;" vertex="1" parent="1">
                    <mxGeometry x="413" y="312" width="120" height="30" as="geometry"/>
                </mxCell>
                <mxCell id="23" style="edgeStyle=none;html=1;exitX=0;exitY=0;exitDx=50;exitDy=20;exitPerimeter=0;strokeWidth=1;entryX=-0.003;entryY=0.471;entryDx=0;entryDy=0;entryPerimeter=0;rounded=0;" edge="1" parent="1" source="11" target="3">
                    <mxGeometry relative="1" as="geometry">
                        <Array as="points">
                            <mxPoint x="547" y="437"/>
                            <mxPoint x="547" y="415"/>
                        </Array>
                    </mxGeometry>
                </mxCell>
                <mxCell id="11" value="" style="externalPins=0;recursiveResize=0;shadow=0;dashed=0;align=center;html=1;strokeWidth=1;shape=mxgraph.rtl.abstract.entity;container=1;collapsible=0;kind=sequential;drawPins=0;left=3;right=2;bottom=0;top=0;" vertex="1" parent="1">
                    <mxGeometry x="425" y="417" width="50" height="50" as="geometry"/>
                </mxCell>
                <mxCell id="12" value="GAMEPLAY" style="text;html=1;align=center;verticalAlign=middle;resizable=0;points=[];autosize=1;strokeColor=none;fillColor=none;" vertex="1" parent="1">
                    <mxGeometry x="412" y="396" width="90" height="30" as="geometry"/>
                </mxCell>
                <mxCell id="21" value="DUT" style="text;html=1;align=center;verticalAlign=middle;resizable=0;points=[];autosize=1;strokeColor=none;fillColor=none;" vertex="1" parent="1">
                    <mxGeometry x="687" y="271" width="50" height="30" as="geometry"/>
                </mxCell>
                <mxCell id="24" value="STIMULUS" style="text;html=1;align=center;verticalAlign=middle;resizable=0;points=[];autosize=1;strokeColor=none;fillColor=none;" vertex="1" parent="1">
                    <mxGeometry x="413" y="183" width="80" height="30" as="geometry"/>
                </mxCell>
                <mxCell id="29" style="edgeStyle=none;rounded=0;html=1;entryX=0;entryY=0.5;entryDx=0;entryDy=0;strokeWidth=1;" edge="1" parent="1" source="28" target="26">
                    <mxGeometry relative="1" as="geometry"/>
                </mxCell>
                <mxCell id="28" value="clock" style="text;html=1;align=center;verticalAlign=middle;resizable=0;points=[];autosize=1;strokeColor=none;fillColor=none;" vertex="1" parent="1">
                    <mxGeometry x="327" y="258" width="50" height="30" as="geometry"/>
                </mxCell>
                <mxCell id="31" style="edgeStyle=none;rounded=0;html=1;entryX=0;entryY=0.662;entryDx=0;entryDy=0;entryPerimeter=0;strokeWidth=1;" edge="1" parent="1" source="30" target="5">
                    <mxGeometry relative="1" as="geometry"/>
                </mxCell>
                <mxCell id="30" value="reset" style="text;html=1;align=center;verticalAlign=middle;resizable=0;points=[];autosize=1;strokeColor=none;fillColor=none;" vertex="1" parent="1">
                    <mxGeometry x="327" y="241" width="50" height="30" as="geometry"/>
                </mxCell>
                <mxCell id="32" value="" style="triangle;whiteSpace=wrap;html=1;" vertex="1" parent="1">
                    <mxGeometry x="677" y="516" width="10" height="19" as="geometry"/>
                </mxCell>
                <mxCell id="33" style="edgeStyle=none;rounded=0;html=1;entryX=0;entryY=0.5;entryDx=0;entryDy=0;strokeWidth=1;" edge="1" parent="1" source="34" target="32">
                    <mxGeometry relative="1" as="geometry"/>
                </mxCell>
                <mxCell id="34" value="clock" style="text;html=1;align=center;verticalAlign=middle;resizable=0;points=[];autosize=1;strokeColor=none;fillColor=none;" vertex="1" parent="1">
                    <mxGeometry x="587" y="510" width="50" height="30" as="geometry"/>
                </mxCell>
                <mxCell id="35" style="edgeStyle=none;rounded=0;html=1;entryX=0;entryY=0.662;entryDx=0;entryDy=0;entryPerimeter=0;strokeWidth=1;" edge="1" parent="1" source="36">
                    <mxGeometry relative="1" as="geometry">
                        <mxPoint x="677" y="507.96000000000004" as="targetPoint"/>
                    </mxGeometry>
                </mxCell>
                <mxCell id="36" value="reset" style="text;html=1;align=center;verticalAlign=middle;resizable=0;points=[];autosize=1;strokeColor=none;fillColor=none;" vertex="1" parent="1">
                    <mxGeometry x="587" y="493" width="50" height="30" as="geometry"/>
                </mxCell>
                <mxCell id="37" value="16" style="verticalLabelPosition=bottom;shadow=0;dashed=0;align=center;html=1;verticalAlign=top;shape=mxgraph.electrical.transmission.bus_width;pointerEvents=1;" vertex="1" parent="1">
                    <mxGeometry x="547" y="349" width="10" height="10" as="geometry"/>
                </mxCell>
                <mxCell id="38" value="16" style="verticalLabelPosition=bottom;shadow=0;dashed=0;align=center;html=1;verticalAlign=top;shape=mxgraph.electrical.transmission.bus_width;pointerEvents=1;" vertex="1" parent="1">
                    <mxGeometry x="537" y="228" width="10" height="10" as="geometry"/>
                </mxCell>
                <mxCell id="39" style="edgeStyle=none;rounded=0;html=1;strokeWidth=2;" edge="1" parent="1" source="18">
                    <mxGeometry relative="1" as="geometry">
                        <mxPoint x="926.9999999999998" y="386" as="targetPoint"/>
                    </mxGeometry>
                </mxCell>
                <mxCell id="40" style="edgeStyle=none;rounded=0;html=1;strokeWidth=1;" edge="1" parent="1" source="19">
                    <mxGeometry relative="1" as="geometry">
                        <mxPoint x="926.9999999999998" y="462.0000000000001" as="targetPoint"/>
                    </mxGeometry>
                </mxCell>
                <mxCell id="41" value="16" style="verticalLabelPosition=bottom;shadow=0;dashed=0;align=center;html=1;verticalAlign=top;shape=mxgraph.electrical.transmission.bus_width;pointerEvents=1;" vertex="1" parent="1">
                    <mxGeometry x="877" y="381" width="10" height="10" as="geometry"/>
                </mxCell>
            </root>
        </mxGraphModel>
    </diagram>
</mxfile>